<svg width="45" height="44" viewBox="0 0 45 44" fill="none" xmlns="http://www.w3.org/2000/svg">
<rect x="0.5" width="44" height="44" rx="22" fill="#37D288"/>
<path d="M28.2498 22.3609C28.2254 19.6571 30.4664 18.3418 30.5689 18.2805C29.2997 16.4324 27.3325 16.1799 26.6412 16.1598C24.989 15.9861 23.3864 17.1472 22.5447 17.1472C21.6863 17.1472 20.3902 16.1766 18.9934 16.2051C17.1959 16.2328 15.5142 17.2722 14.592 18.8862C12.6886 22.1772 14.1081 27.0134 15.9317 29.6735C16.8439 30.9763 17.9098 32.431 19.305 32.3798C20.6699 32.3236 21.1798 31.5107 22.827 31.5107C24.459 31.5107 24.9378 32.3798 26.3607 32.3471C27.8256 32.3236 28.7479 31.0384 29.6282 29.7239C30.6823 28.2306 31.1057 26.76 31.1225 26.6845C31.088 26.6728 28.2775 25.6015 28.2498 22.3609Z" fill="white"/>
<path d="M25.5619 14.6302C26.296 13.7133 26.7983 12.4658 26.6589 11.2C25.5963 11.2469 24.2675 11.934 23.5023 12.8308C22.8253 13.621 22.2205 14.9162 22.3768 16.1343C23.5703 16.2232 24.7959 15.5328 25.5619 14.6302Z" fill="white"/>
</svg>
