<svg width="24" height="24" viewBox="0 0 24 24" fill="none" xmlns="http://www.w3.org/2000/svg">
<rect width="24" height="24" rx="12" fill="#C5C5D1"/>
<path d="M17.8021 10.5301C18.0379 8.95399 16.8379 8.10675 15.197 7.54155L15.7293 5.40652L14.4297 5.08268L13.9115 7.1615C13.5698 7.07628 13.2189 6.99599 12.8702 6.91639L13.3921 4.82384L12.0933 4.5L11.5607 6.63434C11.2779 6.56996 11.0002 6.50634 10.7308 6.4393L10.7323 6.43259L8.94006 5.98503L8.59434 7.37315C8.59434 7.37315 9.55857 7.59418 9.53825 7.60778C10.0645 7.73914 10.1597 8.08753 10.1439 8.36367L9.53756 10.796C9.5738 10.8052 9.62081 10.8185 9.67268 10.8393C9.62932 10.8286 9.58318 10.8168 9.5353 10.8054L8.6854 14.2127C8.62108 14.3726 8.45783 14.6125 8.08987 14.5214C8.1029 14.5403 7.14526 14.2857 7.14526 14.2857L6.5 15.7734L8.1913 16.195C8.50594 16.2739 8.81427 16.3564 9.11791 16.4341L8.5801 18.5936L9.87825 18.9174L10.4109 16.7808C10.7655 16.8771 11.1097 16.9659 11.4466 17.0496L10.9158 19.1762L12.2155 19.5L12.7533 17.3445C14.9694 17.764 16.6359 17.5949 17.3373 15.5903C17.9025 13.9764 17.3091 13.0455 16.1432 12.4385C16.9924 12.2426 17.6316 11.6839 17.8021 10.5301ZM14.8327 14.694C14.4311 16.3079 11.7138 15.4355 10.8328 15.2167L11.5464 12.3557C12.4274 12.5757 15.2524 13.0109 14.8327 14.694ZM15.2346 10.5068C14.8683 11.9748 12.6066 11.2289 11.873 11.0461L12.52 8.45132C13.2537 8.6342 15.6162 8.97552 15.2346 10.5068Z" fill="white"/>
</svg>
