<svg width="24" height="24" viewBox="0 0 24 24" fill="none" xmlns="http://www.w3.org/2000/svg">
<circle cx="12" cy="12" r="10.1538" stroke="white" stroke-width="1.6"/>
<path d="M11.2002 14.4999C11.2002 14.9417 11.5584 15.2999 12.0002 15.2999C12.442 15.2999 12.8002 14.9417 12.8002 14.4999H11.2002ZM8.43096 9.23066C8.43096 9.67248 8.78913 10.0307 9.23096 10.0307C9.67278 10.0307 10.031 9.67248 10.031 9.23066H8.43096ZM12.0002 12.4614L11.7472 11.7025C11.4205 11.8114 11.2002 12.1171 11.2002 12.4614H12.0002ZM10.031 9.23066C10.031 8.14308 10.9126 7.26143 12.0002 7.26143V5.66143C10.029 5.66143 8.43096 7.25942 8.43096 9.23066H10.031ZM12.0002 7.26143C13.0878 7.26143 13.9694 8.14308 13.9694 9.23066H15.5694C15.5694 7.25942 13.9714 5.66143 12.0002 5.66143V7.26143ZM13.9694 9.23066C13.9694 10.0259 13.5001 10.625 12.9048 11.0714C12.6132 11.2901 12.3169 11.4512 12.0913 11.5577C11.9795 11.6105 11.8879 11.6486 11.8267 11.6727C11.7961 11.6847 11.7733 11.6931 11.7596 11.6981C11.7527 11.7005 11.7481 11.7021 11.746 11.7029C11.745 11.7032 11.7445 11.7034 11.7447 11.7033C11.7448 11.7033 11.7451 11.7032 11.7455 11.7031C11.7457 11.703 11.7459 11.7029 11.7462 11.7028C11.7464 11.7028 11.7466 11.7027 11.7467 11.7027C11.7469 11.7026 11.7472 11.7025 12.0002 12.4614C12.2532 13.2204 12.2535 13.2203 12.2538 13.2202C12.2539 13.2201 12.2542 13.22 12.2544 13.22C12.2549 13.2198 12.2554 13.2196 12.2559 13.2195C12.257 13.2191 12.2583 13.2187 12.2597 13.2182C12.2625 13.2172 12.2661 13.216 12.2702 13.2146C12.2786 13.2117 12.2896 13.2078 12.303 13.2029C12.3298 13.1932 12.3665 13.1796 12.4117 13.1619C12.5019 13.1264 12.6266 13.0744 12.7745 13.0045C13.0681 12.8659 13.4641 12.652 13.8648 12.3514C14.6542 11.7594 15.5694 10.7431 15.5694 9.23066H13.9694ZM12.0002 12.4614C11.2002 12.4614 11.2002 12.4614 11.2002 12.4614C11.2002 12.4615 11.2002 12.4615 11.2002 12.4615C11.2002 12.4615 11.2002 12.4616 11.2002 12.4616C11.2002 12.4616 11.2002 12.4617 11.2002 12.4617C11.2002 12.4618 11.2002 12.4618 11.2002 12.4619C11.2002 12.4619 11.2002 12.462 11.2002 12.4621C11.2002 12.4621 11.2002 12.4622 11.2002 12.4623C11.2002 12.4624 11.2002 12.4625 11.2002 12.4626C11.2002 12.4627 11.2002 12.4628 11.2002 12.4629C11.2002 12.463 11.2002 12.4631 11.2002 12.4632C11.2002 12.4633 11.2002 12.4635 11.2002 12.4636C11.2002 12.4637 11.2002 12.4638 11.2002 12.464C11.2002 12.4641 11.2002 12.4643 11.2002 12.4644C11.2002 12.4646 11.2002 12.4647 11.2002 12.4649C11.2002 12.4651 11.2002 12.4652 11.2002 12.4654C11.2002 12.4656 11.2002 12.4658 11.2002 12.466C11.2002 12.4662 11.2002 12.4663 11.2002 12.4665C11.2002 12.4667 11.2002 12.4669 11.2002 12.4672C11.2002 12.4674 11.2002 12.4676 11.2002 12.4678C11.2002 12.468 11.2002 12.4683 11.2002 12.4685C11.2002 12.4687 11.2002 12.469 11.2002 12.4692C11.2002 12.4694 11.2002 12.4697 11.2002 12.4699C11.2002 12.4702 11.2002 12.4705 11.2002 12.4707C11.2002 12.471 11.2002 12.4713 11.2002 12.4715C11.2002 12.4718 11.2002 12.4721 11.2002 12.4724C11.2002 12.4727 11.2002 12.473 11.2002 12.4733C11.2002 12.4736 11.2002 12.4739 11.2002 12.4742C11.2002 12.4745 11.2002 12.4748 11.2002 12.4751C11.2002 12.4755 11.2002 12.4758 11.2002 12.4761C11.2002 12.4764 11.2002 12.4768 11.2002 12.4771C11.2002 12.4775 11.2002 12.4778 11.2002 12.4782C11.2002 12.4785 11.2002 12.4789 11.2002 12.4792C11.2002 12.4796 11.2002 12.48 11.2002 12.4804C11.2002 12.4807 11.2002 12.4811 11.2002 12.4815C11.2002 12.4819 11.2002 12.4823 11.2002 12.4827C11.2002 12.4831 11.2002 12.4835 11.2002 12.4839C11.2002 12.4843 11.2002 12.4847 11.2002 12.4851C11.2002 12.4855 11.2002 12.486 11.2002 12.4864C11.2002 12.4868 11.2002 12.4872 11.2002 12.4877C11.2002 12.4881 11.2002 12.4886 11.2002 12.489C11.2002 12.4895 11.2002 12.4899 11.2002 12.4904C11.2002 12.4908 11.2002 12.4913 11.2002 12.4918C11.2002 12.4922 11.2002 12.4927 11.2002 12.4932C11.2002 12.4937 11.2002 12.4942 11.2002 12.4947C11.2002 12.4951 11.2002 12.4956 11.2002 12.4961C11.2002 12.4966 11.2002 12.4971 11.2002 12.4977C11.2002 12.4982 11.2002 12.4987 11.2002 12.4992C11.2002 12.4997 11.2002 12.5003 11.2002 12.5008C11.2002 12.5013 11.2002 12.5019 11.2002 12.5024C11.2002 12.5029 11.2002 12.5035 11.2002 12.504C11.2002 12.5046 11.2002 12.5051 11.2002 12.5057C11.2002 12.5063 11.2002 12.5068 11.2002 12.5074C11.2002 12.508 11.2002 12.5086 11.2002 12.5091C11.2002 12.5097 11.2002 12.5103 11.2002 12.5109C11.2002 12.5115 11.2002 12.5121 11.2002 12.5127C11.2002 12.5133 11.2002 12.5139 11.2002 12.5145C11.2002 12.5151 11.2002 12.5157 11.2002 12.5163C11.2002 12.517 11.2002 12.5176 11.2002 12.5182C11.2002 12.5189 11.2002 12.5195 11.2002 12.5201C11.2002 12.5208 11.2002 12.5214 11.2002 12.5221C11.2002 12.5227 11.2002 12.5234 11.2002 12.524C11.2002 12.5247 11.2002 12.5253 11.2002 12.526C11.2002 12.5267 11.2002 12.5274 11.2002 12.528C11.2002 12.5287 11.2002 12.5294 11.2002 12.5301C11.2002 12.5308 11.2002 12.5315 11.2002 12.5322C11.2002 12.5329 11.2002 12.5336 11.2002 12.5343C11.2002 12.535 11.2002 12.5357 11.2002 12.5364C11.2002 12.5371 11.2002 12.5378 11.2002 12.5386C11.2002 12.5393 11.2002 12.54 11.2002 12.5408C11.2002 12.5415 11.2002 12.5422 11.2002 12.543C11.2002 12.5437 11.2002 12.5445 11.2002 12.5452C11.2002 12.546 11.2002 12.5467 11.2002 12.5475C11.2002 12.5483 11.2002 12.549 11.2002 12.5498C11.2002 12.5506 11.2002 12.5513 11.2002 12.5521C11.2002 12.5529 11.2002 12.5537 11.2002 12.5545C11.2002 12.5553 11.2002 12.5561 11.2002 12.5569C11.2002 12.5577 11.2002 12.5585 11.2002 12.5593C11.2002 12.5601 11.2002 12.5609 11.2002 12.5617C11.2002 12.5625 11.2002 12.5633 11.2002 12.5642C11.2002 12.565 11.2002 12.5658 11.2002 12.5667C11.2002 12.5675 11.2002 12.5683 11.2002 12.5692C11.2002 12.57 11.2002 12.5709 11.2002 12.5717C11.2002 12.5726 11.2002 12.5734 11.2002 12.5743C11.2002 12.5751 11.2002 12.576 11.2002 12.5769C11.2002 12.5777 11.2002 12.5786 11.2002 12.5795C11.2002 12.5804 11.2002 12.5813 11.2002 12.5821C11.2002 12.583 11.2002 12.5839 11.2002 12.5848C11.2002 12.5857 11.2002 12.5866 11.2002 12.5875C11.2002 12.5884 11.2002 12.5893 11.2002 12.5902C11.2002 12.5911 11.2002 12.5921 11.2002 12.593C11.2002 12.5939 11.2002 12.5948 11.2002 12.5958C11.2002 12.5967 11.2002 12.5976 11.2002 12.5986C11.2002 12.5995 11.2002 12.6004 11.2002 12.6014C11.2002 12.6023 11.2002 12.6033 11.2002 12.6042C11.2002 12.6052 11.2002 12.6061 11.2002 12.6071C11.2002 12.6081 11.2002 12.609 11.2002 12.61C11.2002 12.611 11.2002 12.6119 11.2002 12.6129C11.2002 12.6139 11.2002 12.6149 11.2002 12.6159C11.2002 12.6169 11.2002 12.6178 11.2002 12.6188C11.2002 12.6198 11.2002 12.6208 11.2002 12.6218C11.2002 12.6228 11.2002 12.6238 11.2002 12.6249C11.2002 12.6259 11.2002 12.6269 11.2002 12.6279C11.2002 12.6289 11.2002 12.6299 11.2002 12.631C11.2002 12.632 11.2002 12.633 11.2002 12.6341C11.2002 12.6351 11.2002 12.6361 11.2002 12.6372C11.2002 12.6382 11.2002 12.6393 11.2002 12.6403C11.2002 12.6414 11.2002 12.6424 11.2002 12.6435C11.2002 12.6445 11.2002 12.6456 11.2002 12.6467C11.2002 12.6477 11.2002 12.6488 11.2002 12.6499C11.2002 12.6509 11.2002 12.652 11.2002 12.6531C11.2002 12.6542 11.2002 12.6553 11.2002 12.6563C11.2002 12.6574 11.2002 12.6585 11.2002 12.6596C11.2002 12.6607 11.2002 12.6618 11.2002 12.6629C11.2002 12.664 11.2002 12.6651 11.2002 12.6662C11.2002 12.6673 11.2002 12.6685 11.2002 12.6696C11.2002 12.6707 11.2002 12.6718 11.2002 12.6729C11.2002 12.6741 11.2002 12.6752 11.2002 12.6763C11.2002 12.6775 11.2002 12.6786 11.2002 12.6797C11.2002 12.6809 11.2002 12.682 11.2002 12.6832C11.2002 12.6843 11.2002 12.6855 11.2002 12.6866C11.2002 12.6878 11.2002 12.6889 11.2002 12.6901C11.2002 12.6913 11.2002 12.6924 11.2002 12.6936C11.2002 12.6948 11.2002 12.6959 11.2002 12.6971C11.2002 12.6983 11.2002 12.6995 11.2002 12.7007C11.2002 12.7018 11.2002 12.703 11.2002 12.7042C11.2002 12.7054 11.2002 12.7066 11.2002 12.7078C11.2002 12.709 11.2002 12.7102 11.2002 12.7114C11.2002 12.7126 11.2002 12.7138 11.2002 12.715C11.2002 12.7162 11.2002 12.7175 11.2002 12.7187C11.2002 12.7199 11.2002 12.7211 11.2002 12.7223C11.2002 12.7236 11.2002 12.7248 11.2002 12.726C11.2002 12.7273 11.2002 12.7285 11.2002 12.7297C11.2002 12.731 11.2002 12.7322 11.2002 12.7335C11.2002 12.7347 11.2002 12.736 11.2002 12.7372C11.2002 12.7385 11.2002 12.7397 11.2002 12.741C11.2002 12.7422 11.2002 12.7435 11.2002 12.7448C11.2002 12.746 11.2002 12.7473 11.2002 12.7486C11.2002 12.7498 11.2002 12.7511 11.2002 12.7524C11.2002 12.7537 11.2002 12.7549 11.2002 12.7562C11.2002 12.7575 11.2002 12.7588 11.2002 12.7601C11.2002 12.7614 11.2002 12.7627 11.2002 12.764C11.2002 12.7653 11.2002 12.7666 11.2002 12.7679C11.2002 12.7692 11.2002 12.7705 11.2002 12.7718C11.2002 12.7731 11.2002 12.7744 11.2002 12.7757C11.2002 12.7771 11.2002 12.7784 11.2002 12.7797C11.2002 12.781 11.2002 12.7823 11.2002 12.7837C11.2002 12.785 11.2002 12.7863 11.2002 12.7877C11.2002 12.789 11.2002 12.7903 11.2002 12.7917C11.2002 12.793 11.2002 12.7944 11.2002 12.7957C11.2002 12.7971 11.2002 12.7984 11.2002 12.7998C11.2002 12.8011 11.2002 12.8025 11.2002 12.8038C11.2002 12.8052 11.2002 12.8066 11.2002 12.8079C11.2002 12.8093 11.2002 12.8107 11.2002 12.812C11.2002 12.8134 11.2002 12.8148 11.2002 12.8162C11.2002 12.8175 11.2002 12.8189 11.2002 12.8203C11.2002 12.8217 11.2002 12.8231 11.2002 12.8244C11.2002 12.8258 11.2002 12.8272 11.2002 12.8286C11.2002 12.83 11.2002 12.8314 11.2002 12.8328C11.2002 12.8342 11.2002 12.8356 11.2002 12.837C11.2002 12.8384 11.2002 12.8398 11.2002 12.8413C11.2002 12.8427 11.2002 12.8441 11.2002 12.8455C11.2002 12.8469 11.2002 12.8483 11.2002 12.8498C11.2002 12.8512 11.2002 12.8526 11.2002 12.854C11.2002 12.8555 11.2002 12.8569 11.2002 12.8583C11.2002 12.8598 11.2002 12.8612 11.2002 12.8626C11.2002 12.8641 11.2002 12.8655 11.2002 12.867C11.2002 12.8684 11.2002 12.8698 11.2002 12.8713C11.2002 12.8727 11.2002 12.8742 11.2002 12.8757C11.2002 12.8771 11.2002 12.8786 11.2002 12.88C11.2002 12.8815 11.2002 12.8829 11.2002 12.8844C11.2002 12.8859 11.2002 12.8873 11.2002 12.8888C11.2002 12.8903 11.2002 12.8918 11.2002 12.8932C11.2002 12.8947 11.2002 12.8962 11.2002 12.8977C11.2002 12.8992 11.2002 12.9006 11.2002 12.9021C11.2002 12.9036 11.2002 12.9051 11.2002 12.9066C11.2002 12.9081 11.2002 12.9096 11.2002 12.9111C11.2002 12.9126 11.2002 12.9141 11.2002 12.9156C11.2002 12.9171 11.2002 12.9186 11.2002 12.9201C11.2002 12.9216 11.2002 12.9231 11.2002 12.9246C11.2002 12.9261 11.2002 12.9276 11.2002 12.9291C11.2002 12.9307 11.2002 12.9322 11.2002 12.9337C11.2002 12.9352 11.2002 12.9367 11.2002 12.9383C11.2002 12.9398 11.2002 12.9413 11.2002 12.9428C11.2002 12.9444 11.2002 12.9459 11.2002 12.9474C11.2002 12.949 11.2002 12.9505 11.2002 12.9521C11.2002 12.9536 11.2002 12.9551 11.2002 12.9567C11.2002 12.9582 11.2002 12.9598 11.2002 12.9613C11.2002 12.9629 11.2002 12.9644 11.2002 12.966C11.2002 12.9675 11.2002 12.9691 11.2002 12.9706C11.2002 12.9722 11.2002 12.9738 11.2002 12.9753C11.2002 12.9769 11.2002 12.9784 11.2002 12.98C11.2002 12.9816 11.2002 12.9831 11.2002 12.9847C11.2002 12.9863 11.2002 12.9879 11.2002 12.9894C11.2002 12.991 11.2002 12.9926 11.2002 12.9942C11.2002 12.9957 11.2002 12.9973 11.2002 12.9989C11.2002 13.0005 11.2002 13.0021 11.2002 13.0037C11.2002 13.0052 11.2002 13.0068 11.2002 13.0084C11.2002 13.01 11.2002 13.0116 11.2002 13.0132C11.2002 13.0148 11.2002 13.0164 11.2002 13.018C11.2002 13.0196 11.2002 13.0212 11.2002 13.0228C11.2002 13.0244 11.2002 13.026 11.2002 13.0276C11.2002 13.0292 11.2002 13.0308 11.2002 13.0325C11.2002 13.0341 11.2002 13.0357 11.2002 13.0373C11.2002 13.0389 11.2002 13.0405 11.2002 13.0421C11.2002 13.0438 11.2002 13.0454 11.2002 13.047C11.2002 13.0486 11.2002 13.0503 11.2002 13.0519C11.2002 13.0535 11.2002 13.0551 11.2002 13.0568C11.2002 13.0584 11.2002 13.06 11.2002 13.0617C11.2002 13.0633 11.2002 13.0649 11.2002 13.0666C11.2002 13.0682 11.2002 13.0699 11.2002 13.0715C11.2002 13.0731 11.2002 13.0748 11.2002 13.0764C11.2002 13.0781 11.2002 13.0797 11.2002 13.0814C11.2002 13.083 11.2002 13.0847 11.2002 13.0863C11.2002 13.088 11.2002 13.0896 11.2002 13.0913C11.2002 13.0929 11.2002 13.0946 11.2002 13.0963C11.2002 13.0979 11.2002 13.0996 11.2002 13.1012C11.2002 13.1029 11.2002 13.1046 11.2002 13.1062C11.2002 13.1079 11.2002 13.1096 11.2002 13.1112C11.2002 13.1129 11.2002 13.1146 11.2002 13.1163C11.2002 13.1179 11.2002 13.1196 11.2002 13.1213C11.2002 13.123 11.2002 13.1246 11.2002 13.1263C11.2002 13.128 11.2002 13.1297 11.2002 13.1314C11.2002 13.133 11.2002 13.1347 11.2002 13.1364C11.2002 13.1381 11.2002 13.1398 11.2002 13.1415C11.2002 13.1432 11.2002 13.1448 11.2002 13.1465C11.2002 13.1482 11.2002 13.1499 11.2002 13.1516C11.2002 13.1533 11.2002 13.155 11.2002 13.1567C11.2002 13.1584 11.2002 13.1601 11.2002 13.1618C11.2002 13.1635 11.2002 13.1652 11.2002 13.1669C11.2002 13.1686 11.2002 13.1703 11.2002 13.172C11.2002 13.1737 11.2002 13.1754 11.2002 13.1771C11.2002 13.1788 11.2002 13.1806 11.2002 13.1823C11.2002 13.184 11.2002 13.1857 11.2002 13.1874C11.2002 13.1891 11.2002 13.1908 11.2002 13.1926C11.2002 13.1943 11.2002 13.196 11.2002 13.1977C11.2002 13.1994 11.2002 13.2012 11.2002 13.2029C11.2002 13.2046 11.2002 13.2063 11.2002 13.208C11.2002 13.2098 11.2002 13.2115 11.2002 13.2132C11.2002 13.2149 11.2002 13.2167 11.2002 13.2184C11.2002 13.2201 11.2002 13.2219 11.2002 13.2236C11.2002 13.2253 11.2002 13.2271 11.2002 13.2288C11.2002 13.2305 11.2002 13.2323 11.2002 13.234C11.2002 13.2357 11.2002 13.2375 11.2002 13.2392C11.2002 13.241 11.2002 13.2427 11.2002 13.2444C11.2002 13.2462 11.2002 13.2479 11.2002 13.2497C11.2002 13.2514 11.2002 13.2532 11.2002 13.2549C11.2002 13.2566 11.2002 13.2584 11.2002 13.2601C11.2002 13.2619 11.2002 13.2636 11.2002 13.2654C11.2002 13.2671 11.2002 13.2689 11.2002 13.2706C11.2002 13.2724 11.2002 13.2741 11.2002 13.2759C11.2002 13.2777 11.2002 13.2794 11.2002 13.2812C11.2002 13.2829 11.2002 13.2847 11.2002 13.2864C11.2002 13.2882 11.2002 13.29 11.2002 13.2917C11.2002 13.2935 11.2002 13.2952 11.2002 13.297C11.2002 13.2988 11.2002 13.3005 11.2002 13.3023C11.2002 13.304 11.2002 13.3058 11.2002 13.3076C11.2002 13.3093 11.2002 13.3111 11.2002 13.3129C11.2002 13.3146 11.2002 13.3164 11.2002 13.3182C11.2002 13.3199 11.2002 13.3217 11.2002 13.3235C11.2002 13.3253 11.2002 13.327 11.2002 13.3288C11.2002 13.3306 11.2002 13.3323 11.2002 13.3341C11.2002 13.3359 11.2002 13.3377 11.2002 13.3394C11.2002 13.3412 11.2002 13.343 11.2002 13.3448C11.2002 13.3465 11.2002 13.3483 11.2002 13.3501C11.2002 13.3519 11.2002 13.3537 11.2002 13.3554C11.2002 13.3572 11.2002 13.359 11.2002 13.3608C11.2002 13.3626 11.2002 13.3643 11.2002 13.3661C11.2002 13.3679 11.2002 13.3697 11.2002 13.3715C11.2002 13.3733 11.2002 13.375 11.2002 13.3768C11.2002 13.3786 11.2002 13.3804 11.2002 13.3822C11.2002 13.384 11.2002 13.3858 11.2002 13.3875C11.2002 13.3893 11.2002 13.3911 11.2002 13.3929C11.2002 13.3947 11.2002 13.3965 11.2002 13.3983C11.2002 13.4001 11.2002 13.4019 11.2002 13.4036C11.2002 13.4054 11.2002 13.4072 11.2002 13.409C11.2002 13.4108 11.2002 13.4126 11.2002 13.4144C11.2002 13.4162 11.2002 13.418 11.2002 13.4198C11.2002 13.4216 11.2002 13.4234 11.2002 13.4252C11.2002 13.4269 11.2002 13.4287 11.2002 13.4305C11.2002 13.4323 11.2002 13.4341 11.2002 13.4359C11.2002 13.4377 11.2002 13.4395 11.2002 13.4413C11.2002 13.4431 11.2002 13.4449 11.2002 13.4467C11.2002 13.4485 11.2002 13.4503 11.2002 13.4521C11.2002 13.4539 11.2002 13.4557 11.2002 13.4575C11.2002 13.4593 11.2002 13.4611 11.2002 13.4629C11.2002 13.4647 11.2002 13.4665 11.2002 13.4683C11.2002 13.4701 11.2002 13.4719 11.2002 13.4737C11.2002 13.4755 11.2002 13.4773 11.2002 13.4791C11.2002 13.4809 11.2002 13.4827 11.2002 13.4845C11.2002 13.4863 11.2002 13.4881 11.2002 13.4899C11.2002 13.4917 11.2002 13.4935 11.2002 13.4953C11.2002 13.4971 11.2002 13.4989 11.2002 13.5007C11.2002 13.5025 11.2002 13.5043 11.2002 13.5061C11.2002 13.5079 11.2002 13.5097 11.2002 13.5115C11.2002 13.5133 11.2002 13.5151 11.2002 13.5169C11.2002 13.5187 11.2002 13.5206 11.2002 13.5224C11.2002 13.5242 11.2002 13.526 11.2002 13.5278C11.2002 13.5296 11.2002 13.5314 11.2002 13.5332C11.2002 13.535 11.2002 13.5368 11.2002 13.5386C11.2002 13.5404 11.2002 13.5422 11.2002 13.544C11.2002 13.5458 11.2002 13.5476 11.2002 13.5494C11.2002 13.5512 11.2002 13.553 11.2002 13.5548C11.2002 13.5566 11.2002 13.5584 11.2002 13.5602C11.2002 13.562 11.2002 13.5638 11.2002 13.5656C11.2002 13.5675 11.2002 13.5693 11.2002 13.5711C11.2002 13.5729 11.2002 13.5747 11.2002 13.5765C11.2002 13.5783 11.2002 13.5801 11.2002 13.5819C11.2002 13.5837 11.2002 13.5855 11.2002 13.5873C11.2002 13.5891 11.2002 13.5909 11.2002 13.5927C11.2002 13.5945 11.2002 13.5963 11.2002 13.5981C11.2002 13.5999 11.2002 13.6017 11.2002 13.6035C11.2002 13.6053 11.2002 13.6071 11.2002 13.6089C11.2002 13.6107 11.2002 13.6125 11.2002 13.6143C11.2002 13.6161 11.2002 13.6179 11.2002 13.6197C11.2002 13.6215 11.2002 13.6233 11.2002 13.6251C11.2002 13.6269 11.2002 13.6287 11.2002 13.6305C11.2002 13.6323 11.2002 13.6341 11.2002 13.6359C11.2002 13.6377 11.2002 13.6395 11.2002 13.6413C11.2002 13.6431 11.2002 13.6449 11.2002 13.6467C11.2002 13.6485 11.2002 13.6503 11.2002 13.6521C11.2002 13.6539 11.2002 13.6557 11.2002 13.6575C11.2002 13.6593 11.2002 13.6611 11.2002 13.6628C11.2002 13.6646 11.2002 13.6664 11.2002 13.6682C11.2002 13.67 11.2002 13.6718 11.2002 13.6736C11.2002 13.6754 11.2002 13.6772 11.2002 13.679C11.2002 13.6808 11.2002 13.6826 11.2002 13.6844C11.2002 13.6861 11.2002 13.6879 11.2002 13.6897C11.2002 13.6915 11.2002 13.6933 11.2002 13.6951C11.2002 13.6969 11.2002 13.6987 11.2002 13.7004C11.2002 13.7022 11.2002 13.704 11.2002 13.7058C11.2002 13.7076 11.2002 13.7094 11.2002 13.7112C11.2002 13.7129 11.2002 13.7147 11.2002 13.7165C11.2002 13.7183 11.2002 13.7201 11.2002 13.7219C11.2002 13.7236 11.2002 13.7254 11.2002 13.7272C11.2002 13.729 11.2002 13.7308 11.2002 13.7325C11.2002 13.7343 11.2002 13.7361 11.2002 13.7379C11.2002 13.7397 11.2002 13.7414 11.2002 13.7432C11.2002 13.745 11.2002 13.7468 11.2002 13.7485C11.2002 13.7503 11.2002 13.7521 11.2002 13.7539C11.2002 13.7556 11.2002 13.7574 11.2002 13.7592C11.2002 13.761 11.2002 13.7627 11.2002 13.7645C11.2002 13.7663 11.2002 13.768 11.2002 13.7698C11.2002 13.7716 11.2002 13.7733 11.2002 13.7751C11.2002 13.7769 11.2002 13.7786 11.2002 13.7804C11.2002 13.7822 11.2002 13.7839 11.2002 13.7857C11.2002 13.7875 11.2002 13.7892 11.2002 13.791C11.2002 13.7927 11.2002 13.7945 11.2002 13.7963C11.2002 13.798 11.2002 13.7998 11.2002 13.8015C11.2002 13.8033 11.2002 13.805 11.2002 13.8068C11.2002 13.8086 11.2002 13.8103 11.2002 13.8121C11.2002 13.8138 11.2002 13.8156 11.2002 13.8173C11.2002 13.8191 11.2002 13.8208 11.2002 13.8226C11.2002 13.8243 11.2002 13.8261 11.2002 13.8278C11.2002 13.8296 11.2002 13.8313 11.2002 13.8331C11.2002 13.8348 11.2002 13.8366 11.2002 13.8383C11.2002 13.84 11.2002 13.8418 11.2002 13.8435C11.2002 13.8453 11.2002 13.847 11.2002 13.8487C11.2002 13.8505 11.2002 13.8522 11.2002 13.854C11.2002 13.8557 11.2002 13.8574 11.2002 13.8592C11.2002 13.8609 11.2002 13.8626 11.2002 13.8644C11.2002 13.8661 11.2002 13.8678 11.2002 13.8695C11.2002 13.8713 11.2002 13.873 11.2002 13.8747C11.2002 13.8765 11.2002 13.8782 11.2002 13.8799C11.2002 13.8816 11.2002 13.8834 11.2002 13.8851C11.2002 13.8868 11.2002 13.8885 11.2002 13.8902C11.2002 13.892 11.2002 13.8937 11.2002 13.8954C11.2002 13.8971 11.2002 13.8988 11.2002 13.9005C11.2002 13.9022 11.2002 13.904 11.2002 13.9057C11.2002 13.9074 11.2002 13.9091 11.2002 13.9108C11.2002 13.9125 11.2002 13.9142 11.2002 13.9159C11.2002 13.9176 11.2002 13.9193 11.2002 13.921C11.2002 13.9227 11.2002 13.9244 11.2002 13.9261C11.2002 13.9278 11.2002 13.9295 11.2002 13.9312C11.2002 13.9329 11.2002 13.9346 11.2002 13.9363C11.2002 13.938 11.2002 13.9397 11.2002 13.9414C11.2002 13.9431 11.2002 13.9448 11.2002 13.9465C11.2002 13.9481 11.2002 13.9498 11.2002 13.9515C11.2002 13.9532 11.2002 13.9549 11.2002 13.9566C11.2002 13.9582 11.2002 13.9599 11.2002 13.9616C11.2002 13.9633 11.2002 13.965 11.2002 13.9666C11.2002 13.9683 11.2002 13.97 11.2002 13.9717C11.2002 13.9733 11.2002 13.975 11.2002 13.9767C11.2002 13.9783 11.2002 13.98 11.2002 13.9817C11.2002 13.9833 11.2002 13.985 11.2002 13.9867C11.2002 13.9883 11.2002 13.99 11.2002 13.9916C11.2002 13.9933 11.2002 13.995 11.2002 13.9966C11.2002 13.9983 11.2002 13.9999 11.2002 14.0016C11.2002 14.0032 11.2002 14.0049 11.2002 14.0065C11.2002 14.0082 11.2002 14.0098 11.2002 14.0115C11.2002 14.0131 11.2002 14.0147 11.2002 14.0164C11.2002 14.018 11.2002 14.0197 11.2002 14.0213C11.2002 14.0229 11.2002 14.0246 11.2002 14.0262C11.2002 14.0278 11.2002 14.0295 11.2002 14.0311C11.2002 14.0327 11.2002 14.0344 11.2002 14.036C11.2002 14.0376 11.2002 14.0392 11.2002 14.0409C11.2002 14.0425 11.2002 14.0441 11.2002 14.0457C11.2002 14.0473 11.2002 14.049 11.2002 14.0506C11.2002 14.0522 11.2002 14.0538 11.2002 14.0554C11.2002 14.057 11.2002 14.0586 11.2002 14.0602C11.2002 14.0619 11.2002 14.0635 11.2002 14.0651C11.2002 14.0667 11.2002 14.0683 11.2002 14.0699C11.2002 14.0715 11.2002 14.0731 11.2002 14.0747C11.2002 14.0762 11.2002 14.0778 11.2002 14.0794C11.2002 14.081 11.2002 14.0826 11.2002 14.0842C11.2002 14.0858 11.2002 14.0874 11.2002 14.0889C11.2002 14.0905 11.2002 14.0921 11.2002 14.0937C11.2002 14.0953 11.2002 14.0968 11.2002 14.0984C11.2002 14.1 11.2002 14.1016 11.2002 14.1031C11.2002 14.1047 11.2002 14.1063 11.2002 14.1078C11.2002 14.1094 11.2002 14.111 11.2002 14.1125C11.2002 14.1141 11.2002 14.1156 11.2002 14.1172C11.2002 14.1188 11.2002 14.1203 11.2002 14.1219C11.2002 14.1234 11.2002 14.125 11.2002 14.1265C11.2002 14.1281 11.2002 14.1296 11.2002 14.1311C11.2002 14.1327 11.2002 14.1342 11.2002 14.1358C11.2002 14.1373 11.2002 14.1388 11.2002 14.1404C11.2002 14.1419 11.2002 14.1434 11.2002 14.145C11.2002 14.1465 11.2002 14.148 11.2002 14.1495C11.2002 14.1511 11.2002 14.1526 11.2002 14.1541C11.2002 14.1556 11.2002 14.1571 11.2002 14.1587C11.2002 14.1602 11.2002 14.1617 11.2002 14.1632C11.2002 14.1647 11.2002 14.1662 11.2002 14.1677C11.2002 14.1692 11.2002 14.1707 11.2002 14.1722C11.2002 14.1737 11.2002 14.1752 11.2002 14.1767C11.2002 14.1782 11.2002 14.1797 11.2002 14.1812C11.2002 14.1827 11.2002 14.1842 11.2002 14.1857C11.2002 14.1871 11.2002 14.1886 11.2002 14.1901C11.2002 14.1916 11.2002 14.1931 11.2002 14.1945C11.2002 14.196 11.2002 14.1975 11.2002 14.199C11.2002 14.2004 11.2002 14.2019 11.2002 14.2034C11.2002 14.2048 11.2002 14.2063 11.2002 14.2077C11.2002 14.2092 11.2002 14.2107 11.2002 14.2121C11.2002 14.2136 11.2002 14.215 11.2002 14.2165C11.2002 14.2179 11.2002 14.2194 11.2002 14.2208C11.2002 14.2222 11.2002 14.2237 11.2002 14.2251C11.2002 14.2266 11.2002 14.228 11.2002 14.2294C11.2002 14.2309 11.2002 14.2323 11.2002 14.2337C11.2002 14.2351 11.2002 14.2366 11.2002 14.238C11.2002 14.2394 11.2002 14.2408 11.2002 14.2422C11.2002 14.2437 11.2002 14.2451 11.2002 14.2465C11.2002 14.2479 11.2002 14.2493 11.2002 14.2507C11.2002 14.2521 11.2002 14.2535 11.2002 14.2549C11.2002 14.2563 11.2002 14.2577 11.2002 14.2591C11.2002 14.2605 11.2002 14.2619 11.2002 14.2633C11.2002 14.2647 11.2002 14.266 11.2002 14.2674C11.2002 14.2688 11.2002 14.2702 11.2002 14.2716C11.2002 14.2729 11.2002 14.2743 11.2002 14.2757C11.2002 14.277 11.2002 14.2784 11.2002 14.2798C11.2002 14.2811 11.2002 14.2825 11.2002 14.2839C11.2002 14.2852 11.2002 14.2866 11.2002 14.2879C11.2002 14.2893 11.2002 14.2906 11.2002 14.292C11.2002 14.2933 11.2002 14.2947 11.2002 14.296C11.2002 14.2973 11.2002 14.2987 11.2002 14.3C11.2002 14.3013 11.2002 14.3027 11.2002 14.304C11.2002 14.3053 11.2002 14.3067 11.2002 14.308C11.2002 14.3093 11.2002 14.3106 11.2002 14.3119C11.2002 14.3132 11.2002 14.3146 11.2002 14.3159C11.2002 14.3172 11.2002 14.3185 11.2002 14.3198C11.2002 14.3211 11.2002 14.3224 11.2002 14.3237C11.2002 14.325 11.2002 14.3263 11.2002 14.3276C11.2002 14.3288 11.2002 14.3301 11.2002 14.3314C11.2002 14.3327 11.2002 14.334 11.2002 14.3353C11.2002 14.3365 11.2002 14.3378 11.2002 14.3391C11.2002 14.3403 11.2002 14.3416 11.2002 14.3429C11.2002 14.3441 11.2002 14.3454 11.2002 14.3467C11.2002 14.3479 11.2002 14.3492 11.2002 14.3504C11.2002 14.3517 11.2002 14.3529 11.2002 14.3542C11.2002 14.3554 11.2002 14.3566 11.2002 14.3579C11.2002 14.3591 11.2002 14.3604 11.2002 14.3616C11.2002 14.3628 11.2002 14.364 11.2002 14.3653C11.2002 14.3665 11.2002 14.3677 11.2002 14.3689C11.2002 14.3701 11.2002 14.3714 11.2002 14.3726C11.2002 14.3738 11.2002 14.375 11.2002 14.3762C11.2002 14.3774 11.2002 14.3786 11.2002 14.3798C11.2002 14.381 11.2002 14.3822 11.2002 14.3834C11.2002 14.3845 11.2002 14.3857 11.2002 14.3869C11.2002 14.3881 11.2002 14.3893 11.2002 14.3905C11.2002 14.3916 11.2002 14.3928 11.2002 14.394C11.2002 14.3951 11.2002 14.3963 11.2002 14.3975C11.2002 14.3986 11.2002 14.3998 11.2002 14.4009C11.2002 14.4021 11.2002 14.4032 11.2002 14.4044C11.2002 14.4055 11.2002 14.4067 11.2002 14.4078C11.2002 14.4089 11.2002 14.4101 11.2002 14.4112C11.2002 14.4123 11.2002 14.4135 11.2002 14.4146C11.2002 14.4157 11.2002 14.4168 11.2002 14.418C11.2002 14.4191 11.2002 14.4202 11.2002 14.4213C11.2002 14.4224 11.2002 14.4235 11.2002 14.4246C11.2002 14.4257 11.2002 14.4268 11.2002 14.4279C11.2002 14.429 11.2002 14.4301 11.2002 14.4312C11.2002 14.4323 11.2002 14.4333 11.2002 14.4344C11.2002 14.4355 11.2002 14.4366 11.2002 14.4376C11.2002 14.4387 11.2002 14.4398 11.2002 14.4408C11.2002 14.4419 11.2002 14.443 11.2002 14.444C11.2002 14.4451 11.2002 14.4461 11.2002 14.4472C11.2002 14.4482 11.2002 14.4493 11.2002 14.4503C11.2002 14.4514 11.2002 14.4524 11.2002 14.4534C11.2002 14.4545 11.2002 14.4555 11.2002 14.4565C11.2002 14.4575 11.2002 14.4586 11.2002 14.4596C11.2002 14.4606 11.2002 14.4616 11.2002 14.4626C11.2002 14.4636 11.2002 14.4646 11.2002 14.4656C11.2002 14.4666 11.2002 14.4676 11.2002 14.4686C11.2002 14.4696 11.2002 14.4706 11.2002 14.4716C11.2002 14.4726 11.2002 14.4735 11.2002 14.4745C11.2002 14.4755 11.2002 14.4765 11.2002 14.4774C11.2002 14.4784 11.2002 14.4794 11.2002 14.4803C11.2002 14.4813 11.2002 14.4822 11.2002 14.4832C11.2002 14.4841 11.2002 14.4851 11.2002 14.486C11.2002 14.487 11.2002 14.4879 11.2002 14.4889C11.2002 14.4898 11.2002 14.4907 11.2002 14.4917C11.2002 14.4926 11.2002 14.4935 11.2002 14.4944C11.2002 14.4953 11.2002 14.4963 11.2002 14.4972C11.2002 14.4981 11.2002 14.499 11.2002 14.4999H12.8002C12.8002 14.499 12.8002 14.4981 12.8002 14.4972C12.8002 14.4963 12.8002 14.4953 12.8002 14.4944C12.8002 14.4935 12.8002 14.4926 12.8002 14.4917C12.8002 14.4907 12.8002 14.4898 12.8002 14.4889C12.8002 14.4879 12.8002 14.487 12.8002 14.486C12.8002 14.4851 12.8002 14.4841 12.8002 14.4832C12.8002 14.4822 12.8002 14.4813 12.8002 14.4803C12.8002 14.4794 12.8002 14.4784 12.8002 14.4774C12.8002 14.4765 12.8002 14.4755 12.8002 14.4745C12.8002 14.4735 12.8002 14.4726 12.8002 14.4716C12.8002 14.4706 12.8002 14.4696 12.8002 14.4686C12.8002 14.4676 12.8002 14.4666 12.8002 14.4656C12.8002 14.4646 12.8002 14.4636 12.8002 14.4626C12.8002 14.4616 12.8002 14.4606 12.8002 14.4596C12.8002 14.4586 12.8002 14.4575 12.8002 14.4565C12.8002 14.4555 12.8002 14.4545 12.8002 14.4534C12.8002 14.4524 12.8002 14.4514 12.8002 14.4503C12.8002 14.4493 12.8002 14.4482 12.8002 14.4472C12.8002 14.4461 12.8002 14.4451 12.8002 14.444C12.8002 14.443 12.8002 14.4419 12.8002 14.4408C12.8002 14.4398 12.8002 14.4387 12.8002 14.4376C12.8002 14.4366 12.8002 14.4355 12.8002 14.4344C12.8002 14.4333 12.8002 14.4323 12.8002 14.4312C12.8002 14.4301 12.8002 14.429 12.8002 14.4279C12.8002 14.4268 12.8002 14.4257 12.8002 14.4246C12.8002 14.4235 12.8002 14.4224 12.8002 14.4213C12.8002 14.4202 12.8002 14.4191 12.8002 14.418C12.8002 14.4168 12.8002 14.4157 12.8002 14.4146C12.8002 14.4135 12.8002 14.4123 12.8002 14.4112C12.8002 14.4101 12.8002 14.4089 12.8002 14.4078C12.8002 14.4067 12.8002 14.4055 12.8002 14.4044C12.8002 14.4032 12.8002 14.4021 12.8002 14.4009C12.8002 14.3998 12.8002 14.3986 12.8002 14.3975C12.8002 14.3963 12.8002 14.3951 12.8002 14.394C12.8002 14.3928 12.8002 14.3916 12.8002 14.3905C12.8002 14.3893 12.8002 14.3881 12.8002 14.3869C12.8002 14.3857 12.8002 14.3845 12.8002 14.3834C12.8002 14.3822 12.8002 14.381 12.8002 14.3798C12.8002 14.3786 12.8002 14.3774 12.8002 14.3762C12.8002 14.375 12.8002 14.3738 12.8002 14.3726C12.8002 14.3714 12.8002 14.3701 12.8002 14.3689C12.8002 14.3677 12.8002 14.3665 12.8002 14.3653C12.8002 14.364 12.8002 14.3628 12.8002 14.3616C12.8002 14.3604 12.8002 14.3591 12.8002 14.3579C12.8002 14.3566 12.8002 14.3554 12.8002 14.3542C12.8002 14.3529 12.8002 14.3517 12.8002 14.3504C12.8002 14.3492 12.8002 14.3479 12.8002 14.3467C12.8002 14.3454 12.8002 14.3441 12.8002 14.3429C12.8002 14.3416 12.8002 14.3403 12.8002 14.3391C12.8002 14.3378 12.8002 14.3365 12.8002 14.3353C12.8002 14.334 12.8002 14.3327 12.8002 14.3314C12.8002 14.3301 12.8002 14.3288 12.8002 14.3276C12.8002 14.3263 12.8002 14.325 12.8002 14.3237C12.8002 14.3224 12.8002 14.3211 12.8002 14.3198C12.8002 14.3185 12.8002 14.3172 12.8002 14.3159C12.8002 14.3146 12.8002 14.3132 12.8002 14.3119C12.8002 14.3106 12.8002 14.3093 12.8002 14.308C12.8002 14.3067 12.8002 14.3053 12.8002 14.304C12.8002 14.3027 12.8002 14.3013 12.8002 14.3C12.8002 14.2987 12.8002 14.2973 12.8002 14.296C12.8002 14.2947 12.8002 14.2933 12.8002 14.292C12.8002 14.2906 12.8002 14.2893 12.8002 14.2879C12.8002 14.2866 12.8002 14.2852 12.8002 14.2839C12.8002 14.2825 12.8002 14.2811 12.8002 14.2798C12.8002 14.2784 12.8002 14.277 12.8002 14.2757C12.8002 14.2743 12.8002 14.2729 12.8002 14.2716C12.8002 14.2702 12.8002 14.2688 12.8002 14.2674C12.8002 14.266 12.8002 14.2647 12.8002 14.2633C12.8002 14.2619 12.8002 14.2605 12.8002 14.2591C12.8002 14.2577 12.8002 14.2563 12.8002 14.2549C12.8002 14.2535 12.8002 14.2521 12.8002 14.2507C12.8002 14.2493 12.8002 14.2479 12.8002 14.2465C12.8002 14.2451 12.8002 14.2437 12.8002 14.2422C12.8002 14.2408 12.8002 14.2394 12.8002 14.238C12.8002 14.2366 12.8002 14.2351 12.8002 14.2337C12.8002 14.2323 12.8002 14.2309 12.8002 14.2294C12.8002 14.228 12.8002 14.2266 12.8002 14.2251C12.8002 14.2237 12.8002 14.2222 12.8002 14.2208C12.8002 14.2194 12.8002 14.2179 12.8002 14.2165C12.8002 14.215 12.8002 14.2136 12.8002 14.2121C12.8002 14.2107 12.8002 14.2092 12.8002 14.2077C12.8002 14.2063 12.8002 14.2048 12.8002 14.2034C12.8002 14.2019 12.8002 14.2004 12.8002 14.199C12.8002 14.1975 12.8002 14.196 12.8002 14.1945C12.8002 14.1931 12.8002 14.1916 12.8002 14.1901C12.8002 14.1886 12.8002 14.1871 12.8002 14.1857C12.8002 14.1842 12.8002 14.1827 12.8002 14.1812C12.8002 14.1797 12.8002 14.1782 12.8002 14.1767C12.8002 14.1752 12.8002 14.1737 12.8002 14.1722C12.8002 14.1707 12.8002 14.1692 12.8002 14.1677C12.8002 14.1662 12.8002 14.1647 12.8002 14.1632C12.8002 14.1617 12.8002 14.1602 12.8002 14.1587C12.8002 14.1571 12.8002 14.1556 12.8002 14.1541C12.8002 14.1526 12.8002 14.1511 12.8002 14.1495C12.8002 14.148 12.8002 14.1465 12.8002 14.145C12.8002 14.1434 12.8002 14.1419 12.8002 14.1404C12.8002 14.1388 12.8002 14.1373 12.8002 14.1358C12.8002 14.1342 12.8002 14.1327 12.8002 14.1311C12.8002 14.1296 12.8002 14.1281 12.8002 14.1265C12.8002 14.125 12.8002 14.1234 12.8002 14.1219C12.8002 14.1203 12.8002 14.1188 12.8002 14.1172C12.8002 14.1156 12.8002 14.1141 12.8002 14.1125C12.8002 14.111 12.8002 14.1094 12.8002 14.1078C12.8002 14.1063 12.8002 14.1047 12.8002 14.1031C12.8002 14.1016 12.8002 14.1 12.8002 14.0984C12.8002 14.0968 12.8002 14.0953 12.8002 14.0937C12.8002 14.0921 12.8002 14.0905 12.8002 14.0889C12.8002 14.0874 12.8002 14.0858 12.8002 14.0842C12.8002 14.0826 12.8002 14.081 12.8002 14.0794C12.8002 14.0778 12.8002 14.0762 12.8002 14.0747C12.8002 14.0731 12.8002 14.0715 12.8002 14.0699C12.8002 14.0683 12.8002 14.0667 12.8002 14.0651C12.8002 14.0635 12.8002 14.0619 12.8002 14.0602C12.8002 14.0586 12.8002 14.057 12.8002 14.0554C12.8002 14.0538 12.8002 14.0522 12.8002 14.0506C12.8002 14.049 12.8002 14.0473 12.8002 14.0457C12.8002 14.0441 12.8002 14.0425 12.8002 14.0409C12.8002 14.0392 12.8002 14.0376 12.8002 14.036C12.8002 14.0344 12.8002 14.0327 12.8002 14.0311C12.8002 14.0295 12.8002 14.0278 12.8002 14.0262C12.8002 14.0246 12.8002 14.0229 12.8002 14.0213C12.8002 14.0197 12.8002 14.018 12.8002 14.0164C12.8002 14.0147 12.8002 14.0131 12.8002 14.0115C12.8002 14.0098 12.8002 14.0082 12.8002 14.0065C12.8002 14.0049 12.8002 14.0032 12.8002 14.0016C12.8002 13.9999 12.8002 13.9983 12.8002 13.9966C12.8002 13.995 12.8002 13.9933 12.8002 13.9916C12.8002 13.99 12.8002 13.9883 12.8002 13.9867C12.8002 13.985 12.8002 13.9833 12.8002 13.9817C12.8002 13.98 12.8002 13.9783 12.8002 13.9767C12.8002 13.975 12.8002 13.9733 12.8002 13.9717C12.8002 13.97 12.8002 13.9683 12.8002 13.9666C12.8002 13.965 12.8002 13.9633 12.8002 13.9616C12.8002 13.9599 12.8002 13.9582 12.8002 13.9566C12.8002 13.9549 12.8002 13.9532 12.8002 13.9515C12.8002 13.9498 12.8002 13.9481 12.8002 13.9465C12.8002 13.9448 12.8002 13.9431 12.8002 13.9414C12.8002 13.9397 12.8002 13.938 12.8002 13.9363C12.8002 13.9346 12.8002 13.9329 12.8002 13.9312C12.8002 13.9295 12.8002 13.9278 12.8002 13.9261C12.8002 13.9244 12.8002 13.9227 12.8002 13.921C12.8002 13.9193 12.8002 13.9176 12.8002 13.9159C12.8002 13.9142 12.8002 13.9125 12.8002 13.9108C12.8002 13.9091 12.8002 13.9074 12.8002 13.9057C12.8002 13.904 12.8002 13.9022 12.8002 13.9005C12.8002 13.8988 12.8002 13.8971 12.8002 13.8954C12.8002 13.8937 12.8002 13.892 12.8002 13.8902C12.8002 13.8885 12.8002 13.8868 12.8002 13.8851C12.8002 13.8834 12.8002 13.8816 12.8002 13.8799C12.8002 13.8782 12.8002 13.8765 12.8002 13.8747C12.8002 13.873 12.8002 13.8713 12.8002 13.8695C12.8002 13.8678 12.8002 13.8661 12.8002 13.8644C12.8002 13.8626 12.8002 13.8609 12.8002 13.8592C12.8002 13.8574 12.8002 13.8557 12.8002 13.854C12.8002 13.8522 12.8002 13.8505 12.8002 13.8487C12.8002 13.847 12.8002 13.8453 12.8002 13.8435C12.8002 13.8418 12.8002 13.84 12.8002 13.8383C12.8002 13.8366 12.8002 13.8348 12.8002 13.8331C12.8002 13.8313 12.8002 13.8296 12.8002 13.8278C12.8002 13.8261 12.8002 13.8243 12.8002 13.8226C12.8002 13.8208 12.8002 13.8191 12.8002 13.8173C12.8002 13.8156 12.8002 13.8138 12.8002 13.8121C12.8002 13.8103 12.8002 13.8086 12.8002 13.8068C12.8002 13.805 12.8002 13.8033 12.8002 13.8015C12.8002 13.7998 12.8002 13.798 12.8002 13.7963C12.8002 13.7945 12.8002 13.7927 12.8002 13.791C12.8002 13.7892 12.8002 13.7875 12.8002 13.7857C12.8002 13.7839 12.8002 13.7822 12.8002 13.7804C12.8002 13.7786 12.8002 13.7769 12.8002 13.7751C12.8002 13.7733 12.8002 13.7716 12.8002 13.7698C12.8002 13.768 12.8002 13.7663 12.8002 13.7645C12.8002 13.7627 12.8002 13.761 12.8002 13.7592C12.8002 13.7574 12.8002 13.7556 12.8002 13.7539C12.8002 13.7521 12.8002 13.7503 12.8002 13.7485C12.8002 13.7468 12.8002 13.745 12.8002 13.7432C12.8002 13.7414 12.8002 13.7397 12.8002 13.7379C12.8002 13.7361 12.8002 13.7343 12.8002 13.7325C12.8002 13.7308 12.8002 13.729 12.8002 13.7272C12.8002 13.7254 12.8002 13.7236 12.8002 13.7219C12.8002 13.7201 12.8002 13.7183 12.8002 13.7165C12.8002 13.7147 12.8002 13.7129 12.8002 13.7112C12.8002 13.7094 12.8002 13.7076 12.8002 13.7058C12.8002 13.704 12.8002 13.7022 12.8002 13.7004C12.8002 13.6987 12.8002 13.6969 12.8002 13.6951C12.8002 13.6933 12.8002 13.6915 12.8002 13.6897C12.8002 13.6879 12.8002 13.6861 12.8002 13.6844C12.8002 13.6826 12.8002 13.6808 12.8002 13.679C12.8002 13.6772 12.8002 13.6754 12.8002 13.6736C12.8002 13.6718 12.8002 13.67 12.8002 13.6682C12.8002 13.6664 12.8002 13.6646 12.8002 13.6628C12.8002 13.6611 12.8002 13.6593 12.8002 13.6575C12.8002 13.6557 12.8002 13.6539 12.8002 13.6521C12.8002 13.6503 12.8002 13.6485 12.8002 13.6467C12.8002 13.6449 12.8002 13.6431 12.8002 13.6413C12.8002 13.6395 12.8002 13.6377 12.8002 13.6359C12.8002 13.6341 12.8002 13.6323 12.8002 13.6305C12.8002 13.6287 12.8002 13.6269 12.8002 13.6251C12.8002 13.6233 12.8002 13.6215 12.8002 13.6197C12.8002 13.6179 12.8002 13.6161 12.8002 13.6143C12.8002 13.6125 12.8002 13.6107 12.8002 13.6089C12.8002 13.6071 12.8002 13.6053 12.8002 13.6035C12.8002 13.6017 12.8002 13.5999 12.8002 13.5981C12.8002 13.5963 12.8002 13.5945 12.8002 13.5927C12.8002 13.5909 12.8002 13.5891 12.8002 13.5873C12.8002 13.5855 12.8002 13.5837 12.8002 13.5819C12.8002 13.5801 12.8002 13.5783 12.8002 13.5765C12.8002 13.5747 12.8002 13.5729 12.8002 13.5711C12.8002 13.5693 12.8002 13.5675 12.8002 13.5656C12.8002 13.5638 12.8002 13.562 12.8002 13.5602C12.8002 13.5584 12.8002 13.5566 12.8002 13.5548C12.8002 13.553 12.8002 13.5512 12.8002 13.5494C12.8002 13.5476 12.8002 13.5458 12.8002 13.544C12.8002 13.5422 12.8002 13.5404 12.8002 13.5386C12.8002 13.5368 12.8002 13.535 12.8002 13.5332C12.8002 13.5314 12.8002 13.5296 12.8002 13.5278C12.8002 13.526 12.8002 13.5242 12.8002 13.5224C12.8002 13.5206 12.8002 13.5187 12.8002 13.5169C12.8002 13.5151 12.8002 13.5133 12.8002 13.5115C12.8002 13.5097 12.8002 13.5079 12.8002 13.5061C12.8002 13.5043 12.8002 13.5025 12.8002 13.5007C12.8002 13.4989 12.8002 13.4971 12.8002 13.4953C12.8002 13.4935 12.8002 13.4917 12.8002 13.4899C12.8002 13.4881 12.8002 13.4863 12.8002 13.4845C12.8002 13.4827 12.8002 13.4809 12.8002 13.4791C12.8002 13.4773 12.8002 13.4755 12.8002 13.4737C12.8002 13.4719 12.8002 13.4701 12.8002 13.4683C12.8002 13.4665 12.8002 13.4647 12.8002 13.4629C12.8002 13.4611 12.8002 13.4593 12.8002 13.4575C12.8002 13.4557 12.8002 13.4539 12.8002 13.4521C12.8002 13.4503 12.8002 13.4485 12.8002 13.4467C12.8002 13.4449 12.8002 13.4431 12.8002 13.4413C12.8002 13.4395 12.8002 13.4377 12.8002 13.4359C12.8002 13.4341 12.8002 13.4323 12.8002 13.4305C12.8002 13.4287 12.8002 13.4269 12.8002 13.4252C12.8002 13.4234 12.8002 13.4216 12.8002 13.4198C12.8002 13.418 12.8002 13.4162 12.8002 13.4144C12.8002 13.4126 12.8002 13.4108 12.8002 13.409C12.8002 13.4072 12.8002 13.4054 12.8002 13.4036C12.8002 13.4019 12.8002 13.4001 12.8002 13.3983C12.8002 13.3965 12.8002 13.3947 12.8002 13.3929C12.8002 13.3911 12.8002 13.3893 12.8002 13.3875C12.8002 13.3858 12.8002 13.384 12.8002 13.3822C12.8002 13.3804 12.8002 13.3786 12.8002 13.3768C12.8002 13.375 12.8002 13.3733 12.8002 13.3715C12.8002 13.3697 12.8002 13.3679 12.8002 13.3661C12.8002 13.3643 12.8002 13.3626 12.8002 13.3608C12.8002 13.359 12.8002 13.3572 12.8002 13.3554C12.8002 13.3537 12.8002 13.3519 12.8002 13.3501C12.8002 13.3483 12.8002 13.3465 12.8002 13.3448C12.8002 13.343 12.8002 13.3412 12.8002 13.3394C12.8002 13.3377 12.8002 13.3359 12.8002 13.3341C12.8002 13.3323 12.8002 13.3306 12.8002 13.3288C12.8002 13.327 12.8002 13.3253 12.8002 13.3235C12.8002 13.3217 12.8002 13.3199 12.8002 13.3182C12.8002 13.3164 12.8002 13.3146 12.8002 13.3129C12.8002 13.3111 12.8002 13.3093 12.8002 13.3076C12.8002 13.3058 12.8002 13.304 12.8002 13.3023C12.8002 13.3005 12.8002 13.2988 12.8002 13.297C12.8002 13.2952 12.8002 13.2935 12.8002 13.2917C12.8002 13.29 12.8002 13.2882 12.8002 13.2864C12.8002 13.2847 12.8002 13.2829 12.8002 13.2812C12.8002 13.2794 12.8002 13.2777 12.8002 13.2759C12.8002 13.2741 12.8002 13.2724 12.8002 13.2706C12.8002 13.2689 12.8002 13.2671 12.8002 13.2654C12.8002 13.2636 12.8002 13.2619 12.8002 13.2601C12.8002 13.2584 12.8002 13.2566 12.8002 13.2549C12.8002 13.2532 12.8002 13.2514 12.8002 13.2497C12.8002 13.2479 12.8002 13.2462 12.8002 13.2444C12.8002 13.2427 12.8002 13.241 12.8002 13.2392C12.8002 13.2375 12.8002 13.2357 12.8002 13.234C12.8002 13.2323 12.8002 13.2305 12.8002 13.2288C12.8002 13.2271 12.8002 13.2253 12.8002 13.2236C12.8002 13.2219 12.8002 13.2201 12.8002 13.2184C12.8002 13.2167 12.8002 13.2149 12.8002 13.2132C12.8002 13.2115 12.8002 13.2098 12.8002 13.208C12.8002 13.2063 12.8002 13.2046 12.8002 13.2029C12.8002 13.2012 12.8002 13.1994 12.8002 13.1977C12.8002 13.196 12.8002 13.1943 12.8002 13.1926C12.8002 13.1908 12.8002 13.1891 12.8002 13.1874C12.8002 13.1857 12.8002 13.184 12.8002 13.1823C12.8002 13.1806 12.8002 13.1788 12.8002 13.1771C12.8002 13.1754 12.8002 13.1737 12.8002 13.172C12.8002 13.1703 12.8002 13.1686 12.8002 13.1669C12.8002 13.1652 12.8002 13.1635 12.8002 13.1618C12.8002 13.1601 12.8002 13.1584 12.8002 13.1567C12.8002 13.155 12.8002 13.1533 12.8002 13.1516C12.8002 13.1499 12.8002 13.1482 12.8002 13.1465C12.8002 13.1448 12.8002 13.1432 12.8002 13.1415C12.8002 13.1398 12.8002 13.1381 12.8002 13.1364C12.8002 13.1347 12.8002 13.133 12.8002 13.1314C12.8002 13.1297 12.8002 13.128 12.8002 13.1263C12.8002 13.1246 12.8002 13.123 12.8002 13.1213C12.8002 13.1196 12.8002 13.1179 12.8002 13.1163C12.8002 13.1146 12.8002 13.1129 12.8002 13.1112C12.8002 13.1096 12.8002 13.1079 12.8002 13.1062C12.8002 13.1046 12.8002 13.1029 12.8002 13.1012C12.8002 13.0996 12.8002 13.0979 12.8002 13.0963C12.8002 13.0946 12.8002 13.0929 12.8002 13.0913C12.8002 13.0896 12.8002 13.088 12.8002 13.0863C12.8002 13.0847 12.8002 13.083 12.8002 13.0814C12.8002 13.0797 12.8002 13.0781 12.8002 13.0764C12.8002 13.0748 12.8002 13.0731 12.8002 13.0715C12.8002 13.0699 12.8002 13.0682 12.8002 13.0666C12.8002 13.0649 12.8002 13.0633 12.8002 13.0617C12.8002 13.06 12.8002 13.0584 12.8002 13.0568C12.8002 13.0551 12.8002 13.0535 12.8002 13.0519C12.8002 13.0503 12.8002 13.0486 12.8002 13.047C12.8002 13.0454 12.8002 13.0438 12.8002 13.0421C12.8002 13.0405 12.8002 13.0389 12.8002 13.0373C12.8002 13.0357 12.8002 13.0341 12.8002 13.0325C12.8002 13.0308 12.8002 13.0292 12.8002 13.0276C12.8002 13.026 12.8002 13.0244 12.8002 13.0228C12.8002 13.0212 12.8002 13.0196 12.8002 13.018C12.8002 13.0164 12.8002 13.0148 12.8002 13.0132C12.8002 13.0116 12.8002 13.01 12.8002 13.0084C12.8002 13.0068 12.8002 13.0052 12.8002 13.0037C12.8002 13.0021 12.8002 13.0005 12.8002 12.9989C12.8002 12.9973 12.8002 12.9957 12.8002 12.9942C12.8002 12.9926 12.8002 12.991 12.8002 12.9894C12.8002 12.9879 12.8002 12.9863 12.8002 12.9847C12.8002 12.9831 12.8002 12.9816 12.8002 12.98C12.8002 12.9784 12.8002 12.9769 12.8002 12.9753C12.8002 12.9738 12.8002 12.9722 12.8002 12.9706C12.8002 12.9691 12.8002 12.9675 12.8002 12.966C12.8002 12.9644 12.8002 12.9629 12.8002 12.9613C12.8002 12.9598 12.8002 12.9582 12.8002 12.9567C12.8002 12.9551 12.8002 12.9536 12.8002 12.9521C12.8002 12.9505 12.8002 12.949 12.8002 12.9474C12.8002 12.9459 12.8002 12.9444 12.8002 12.9428C12.8002 12.9413 12.8002 12.9398 12.8002 12.9383C12.8002 12.9367 12.8002 12.9352 12.8002 12.9337C12.8002 12.9322 12.8002 12.9307 12.8002 12.9291C12.8002 12.9276 12.8002 12.9261 12.8002 12.9246C12.8002 12.9231 12.8002 12.9216 12.8002 12.9201C12.8002 12.9186 12.8002 12.9171 12.8002 12.9156C12.8002 12.9141 12.8002 12.9126 12.8002 12.9111C12.8002 12.9096 12.8002 12.9081 12.8002 12.9066C12.8002 12.9051 12.8002 12.9036 12.8002 12.9021C12.8002 12.9006 12.8002 12.8992 12.8002 12.8977C12.8002 12.8962 12.8002 12.8947 12.8002 12.8932C12.8002 12.8918 12.8002 12.8903 12.8002 12.8888C12.8002 12.8873 12.8002 12.8859 12.8002 12.8844C12.8002 12.8829 12.8002 12.8815 12.8002 12.88C12.8002 12.8786 12.8002 12.8771 12.8002 12.8757C12.8002 12.8742 12.8002 12.8727 12.8002 12.8713C12.8002 12.8698 12.8002 12.8684 12.8002 12.867C12.8002 12.8655 12.8002 12.8641 12.8002 12.8626C12.8002 12.8612 12.8002 12.8598 12.8002 12.8583C12.8002 12.8569 12.8002 12.8555 12.8002 12.854C12.8002 12.8526 12.8002 12.8512 12.8002 12.8498C12.8002 12.8483 12.8002 12.8469 12.8002 12.8455C12.8002 12.8441 12.8002 12.8427 12.8002 12.8413C12.8002 12.8398 12.8002 12.8384 12.8002 12.837C12.8002 12.8356 12.8002 12.8342 12.8002 12.8328C12.8002 12.8314 12.8002 12.83 12.8002 12.8286C12.8002 12.8272 12.8002 12.8258 12.8002 12.8244C12.8002 12.8231 12.8002 12.8217 12.8002 12.8203C12.8002 12.8189 12.8002 12.8175 12.8002 12.8162C12.8002 12.8148 12.8002 12.8134 12.8002 12.812C12.8002 12.8107 12.8002 12.8093 12.8002 12.8079C12.8002 12.8066 12.8002 12.8052 12.8002 12.8038C12.8002 12.8025 12.8002 12.8011 12.8002 12.7998C12.8002 12.7984 12.8002 12.7971 12.8002 12.7957C12.8002 12.7944 12.8002 12.793 12.8002 12.7917C12.8002 12.7903 12.8002 12.789 12.8002 12.7877C12.8002 12.7863 12.8002 12.785 12.8002 12.7837C12.8002 12.7823 12.8002 12.781 12.8002 12.7797C12.8002 12.7784 12.8002 12.7771 12.8002 12.7757C12.8002 12.7744 12.8002 12.7731 12.8002 12.7718C12.8002 12.7705 12.8002 12.7692 12.8002 12.7679C12.8002 12.7666 12.8002 12.7653 12.8002 12.764C12.8002 12.7627 12.8002 12.7614 12.8002 12.7601C12.8002 12.7588 12.8002 12.7575 12.8002 12.7562C12.8002 12.7549 12.8002 12.7537 12.8002 12.7524C12.8002 12.7511 12.8002 12.7498 12.8002 12.7486C12.8002 12.7473 12.8002 12.746 12.8002 12.7448C12.8002 12.7435 12.8002 12.7422 12.8002 12.741C12.8002 12.7397 12.8002 12.7385 12.8002 12.7372C12.8002 12.736 12.8002 12.7347 12.8002 12.7335C12.8002 12.7322 12.8002 12.731 12.8002 12.7297C12.8002 12.7285 12.8002 12.7273 12.8002 12.726C12.8002 12.7248 12.8002 12.7236 12.8002 12.7223C12.8002 12.7211 12.8002 12.7199 12.8002 12.7187C12.8002 12.7175 12.8002 12.7162 12.8002 12.715C12.8002 12.7138 12.8002 12.7126 12.8002 12.7114C12.8002 12.7102 12.8002 12.709 12.8002 12.7078C12.8002 12.7066 12.8002 12.7054 12.8002 12.7042C12.8002 12.703 12.8002 12.7018 12.8002 12.7007C12.8002 12.6995 12.8002 12.6983 12.8002 12.6971C12.8002 12.6959 12.8002 12.6948 12.8002 12.6936C12.8002 12.6924 12.8002 12.6913 12.8002 12.6901C12.8002 12.6889 12.8002 12.6878 12.8002 12.6866C12.8002 12.6855 12.8002 12.6843 12.8002 12.6832C12.8002 12.682 12.8002 12.6809 12.8002 12.6797C12.8002 12.6786 12.8002 12.6775 12.8002 12.6763C12.8002 12.6752 12.8002 12.6741 12.8002 12.6729C12.8002 12.6718 12.8002 12.6707 12.8002 12.6696C12.8002 12.6685 12.8002 12.6673 12.8002 12.6662C12.8002 12.6651 12.8002 12.664 12.8002 12.6629C12.8002 12.6618 12.8002 12.6607 12.8002 12.6596C12.8002 12.6585 12.8002 12.6574 12.8002 12.6563C12.8002 12.6553 12.8002 12.6542 12.8002 12.6531C12.8002 12.652 12.8002 12.6509 12.8002 12.6499C12.8002 12.6488 12.8002 12.6477 12.8002 12.6467C12.8002 12.6456 12.8002 12.6445 12.8002 12.6435C12.8002 12.6424 12.8002 12.6414 12.8002 12.6403C12.8002 12.6393 12.8002 12.6382 12.8002 12.6372C12.8002 12.6361 12.8002 12.6351 12.8002 12.6341C12.8002 12.633 12.8002 12.632 12.8002 12.631C12.8002 12.6299 12.8002 12.6289 12.8002 12.6279C12.8002 12.6269 12.8002 12.6259 12.8002 12.6249C12.8002 12.6238 12.8002 12.6228 12.8002 12.6218C12.8002 12.6208 12.8002 12.6198 12.8002 12.6188C12.8002 12.6178 12.8002 12.6169 12.8002 12.6159C12.8002 12.6149 12.8002 12.6139 12.8002 12.6129C12.8002 12.6119 12.8002 12.611 12.8002 12.61C12.8002 12.609 12.8002 12.6081 12.8002 12.6071C12.8002 12.6061 12.8002 12.6052 12.8002 12.6042C12.8002 12.6033 12.8002 12.6023 12.8002 12.6014C12.8002 12.6004 12.8002 12.5995 12.8002 12.5986C12.8002 12.5976 12.8002 12.5967 12.8002 12.5958C12.8002 12.5948 12.8002 12.5939 12.8002 12.593C12.8002 12.5921 12.8002 12.5911 12.8002 12.5902C12.8002 12.5893 12.8002 12.5884 12.8002 12.5875C12.8002 12.5866 12.8002 12.5857 12.8002 12.5848C12.8002 12.5839 12.8002 12.583 12.8002 12.5821C12.8002 12.5813 12.8002 12.5804 12.8002 12.5795C12.8002 12.5786 12.8002 12.5777 12.8002 12.5769C12.8002 12.576 12.8002 12.5751 12.8002 12.5743C12.8002 12.5734 12.8002 12.5726 12.8002 12.5717C12.8002 12.5709 12.8002 12.57 12.8002 12.5692C12.8002 12.5683 12.8002 12.5675 12.8002 12.5667C12.8002 12.5658 12.8002 12.565 12.8002 12.5642C12.8002 12.5633 12.8002 12.5625 12.8002 12.5617C12.8002 12.5609 12.8002 12.5601 12.8002 12.5593C12.8002 12.5585 12.8002 12.5577 12.8002 12.5569C12.8002 12.5561 12.8002 12.5553 12.8002 12.5545C12.8002 12.5537 12.8002 12.5529 12.8002 12.5521C12.8002 12.5513 12.8002 12.5506 12.8002 12.5498C12.8002 12.549 12.8002 12.5483 12.8002 12.5475C12.8002 12.5467 12.8002 12.546 12.8002 12.5452C12.8002 12.5445 12.8002 12.5437 12.8002 12.543C12.8002 12.5422 12.8002 12.5415 12.8002 12.5408C12.8002 12.54 12.8002 12.5393 12.8002 12.5386C12.8002 12.5378 12.8002 12.5371 12.8002 12.5364C12.8002 12.5357 12.8002 12.535 12.8002 12.5343C12.8002 12.5336 12.8002 12.5329 12.8002 12.5322C12.8002 12.5315 12.8002 12.5308 12.8002 12.5301C12.8002 12.5294 12.8002 12.5287 12.8002 12.528C12.8002 12.5274 12.8002 12.5267 12.8002 12.526C12.8002 12.5253 12.8002 12.5247 12.8002 12.524C12.8002 12.5234 12.8002 12.5227 12.8002 12.5221C12.8002 12.5214 12.8002 12.5208 12.8002 12.5201C12.8002 12.5195 12.8002 12.5189 12.8002 12.5182C12.8002 12.5176 12.8002 12.517 12.8002 12.5163C12.8002 12.5157 12.8002 12.5151 12.8002 12.5145C12.8002 12.5139 12.8002 12.5133 12.8002 12.5127C12.8002 12.5121 12.8002 12.5115 12.8002 12.5109C12.8002 12.5103 12.8002 12.5097 12.8002 12.5091C12.8002 12.5086 12.8002 12.508 12.8002 12.5074C12.8002 12.5068 12.8002 12.5063 12.8002 12.5057C12.8002 12.5051 12.8002 12.5046 12.8002 12.504C12.8002 12.5035 12.8002 12.5029 12.8002 12.5024C12.8002 12.5019 12.8002 12.5013 12.8002 12.5008C12.8002 12.5003 12.8002 12.4997 12.8002 12.4992C12.8002 12.4987 12.8002 12.4982 12.8002 12.4977C12.8002 12.4971 12.8002 12.4966 12.8002 12.4961C12.8002 12.4956 12.8002 12.4951 12.8002 12.4947C12.8002 12.4942 12.8002 12.4937 12.8002 12.4932C12.8002 12.4927 12.8002 12.4922 12.8002 12.4918C12.8002 12.4913 12.8002 12.4908 12.8002 12.4904C12.8002 12.4899 12.8002 12.4895 12.8002 12.489C12.8002 12.4886 12.8002 12.4881 12.8002 12.4877C12.8002 12.4872 12.8002 12.4868 12.8002 12.4864C12.8002 12.486 12.8002 12.4855 12.8002 12.4851C12.8002 12.4847 12.8002 12.4843 12.8002 12.4839C12.8002 12.4835 12.8002 12.4831 12.8002 12.4827C12.8002 12.4823 12.8002 12.4819 12.8002 12.4815C12.8002 12.4811 12.8002 12.4807 12.8002 12.4804C12.8002 12.48 12.8002 12.4796 12.8002 12.4792C12.8002 12.4789 12.8002 12.4785 12.8002 12.4782C12.8002 12.4778 12.8002 12.4775 12.8002 12.4771C12.8002 12.4768 12.8002 12.4764 12.8002 12.4761C12.8002 12.4758 12.8002 12.4755 12.8002 12.4751C12.8002 12.4748 12.8002 12.4745 12.8002 12.4742C12.8002 12.4739 12.8002 12.4736 12.8002 12.4733C12.8002 12.473 12.8002 12.4727 12.8002 12.4724C12.8002 12.4721 12.8002 12.4718 12.8002 12.4715C12.8002 12.4713 12.8002 12.471 12.8002 12.4707C12.8002 12.4705 12.8002 12.4702 12.8002 12.4699C12.8002 12.4697 12.8002 12.4694 12.8002 12.4692C12.8002 12.469 12.8002 12.4687 12.8002 12.4685C12.8002 12.4683 12.8002 12.468 12.8002 12.4678C12.8002 12.4676 12.8002 12.4674 12.8002 12.4672C12.8002 12.4669 12.8002 12.4667 12.8002 12.4665C12.8002 12.4663 12.8002 12.4662 12.8002 12.466C12.8002 12.4658 12.8002 12.4656 12.8002 12.4654C12.8002 12.4652 12.8002 12.4651 12.8002 12.4649C12.8002 12.4647 12.8002 12.4646 12.8002 12.4644C12.8002 12.4643 12.8002 12.4641 12.8002 12.464C12.8002 12.4638 12.8002 12.4637 12.8002 12.4636C12.8002 12.4635 12.8002 12.4633 12.8002 12.4632C12.8002 12.4631 12.8002 12.463 12.8002 12.4629C12.8002 12.4628 12.8002 12.4627 12.8002 12.4626C12.8002 12.4625 12.8002 12.4624 12.8002 12.4623C12.8002 12.4622 12.8002 12.4621 12.8002 12.4621C12.8002 12.462 12.8002 12.4619 12.8002 12.4619C12.8002 12.4618 12.8002 12.4618 12.8002 12.4617C12.8002 12.4617 12.8002 12.4616 12.8002 12.4616C12.8002 12.4616 12.8002 12.4615 12.8002 12.4615C12.8002 12.4615 12.8002 12.4615 12.8002 12.4614C12.8002 12.4614 12.8002 12.4614 12.0002 12.4614Z" fill="white"/>
<circle cx="12.0002" cy="17.5383" r="1.02308" fill="white" stroke="white" stroke-width="0.2"/>
</svg>
