<svg width="32" height="18" viewBox="0 0 32 18" fill="none" xmlns="http://www.w3.org/2000/svg">
<path fill-rule="evenodd" clip-rule="evenodd" d="M31.1551 0.511018C30.3728 -0.212732 29.1554 -0.161532 28.436 0.625374L15.7846 14.4625C15.0651 15.2494 15.116 16.4741 15.8983 17.1978C16.6806 17.9216 17.8979 17.8704 18.6174 17.0835L31.2688 3.2463C31.9882 2.4594 31.9373 1.23477 31.1551 0.511018ZM9.55862 17.0002L22.0347 3.22296C23.1381 2.00451 22.2842 0.0396391 20.6513 0.0396391C20.1265 0.0396391 19.6256 0.262128 19.2703 0.653124L9.49205 11.412C8.734 12.2461 7.45285 12.304 6.62439 11.5416L3.04317 8.24601C2.70868 7.9382 2.27286 7.76764 1.82081 7.76764C0.201887 7.76764 -0.608872 9.749 0.535879 10.9078L6.61836 17.0649C7.43793 17.8945 8.77541 17.8651 9.55862 17.0002Z" fill="white"/>
</svg>
