<svg width="45" height="44" viewBox="0 0 45 44" fill="none" xmlns="http://www.w3.org/2000/svg">
<rect x="0.5" width="44" height="44" rx="22" fill="#37D288"/>
<path d="M12.906 22.0122C12.7141 17.0627 17.1391 12.4888 22.1959 12.4294C24.7733 12.2141 27.2807 13.1947 29.2312 14.794C28.4311 15.6559 27.617 16.5079 26.7475 17.3054C25.0304 16.2834 22.963 15.5044 20.9562 16.1962C17.7193 17.0992 15.7591 20.8436 16.9569 23.946C17.9489 27.1861 21.9714 28.9643 25.124 27.6032C26.7564 27.0305 27.8326 25.5549 28.3049 23.9692C26.434 23.9327 24.5628 23.9555 22.6919 23.9049C22.6872 22.8143 22.6826 21.7279 22.6873 20.6373C25.8072 20.6328 28.9318 20.6236 32.0564 20.651C32.2482 23.3231 31.8459 26.1827 30.0728 28.3273C27.645 31.3886 23.1595 32.2871 19.5106 31.0861C15.638 29.8399 12.8217 26.0176 12.906 22.0122Z" fill="white"/>
</svg>
