<svg width="25" height="24" viewBox="0 0 25 24" fill="none" xmlns="http://www.w3.org/2000/svg">
<path d="M5.125 3C4.02043 3 3.125 3.91963 3.125 5.05405V14.8108C3.125 15.9452 4.02043 16.8649 5.125 16.8649H5.625V21L12.125 16.8649H19.125C20.2296 16.8649 21.125 15.9452 21.125 14.8108V5.05405C21.125 3.91963 20.2296 3 19.125 3H5.125Z" fill="#37D288"/>
<path d="M5.625 16.8649H6.425V16.0649H5.625V16.8649ZM5.625 21H4.825C4.825 21.292 4.98406 21.5607 5.23999 21.7013C5.49591 21.8418 5.80807 21.8317 6.05441 21.675L5.625 21ZM12.125 16.8649V16.0649H11.8921L11.6956 16.1899L12.125 16.8649ZM3.925 5.05405C3.925 4.34121 4.48224 3.8 5.125 3.8V2.2C3.55863 2.2 2.325 3.49805 2.325 5.05405H3.925ZM3.925 14.8108V5.05405H2.325V14.8108H3.925ZM5.125 16.0649C4.48224 16.0649 3.925 15.5237 3.925 14.8108H2.325C2.325 16.3668 3.55863 17.6649 5.125 17.6649V16.0649ZM5.625 16.0649H5.125V17.6649H5.625V16.0649ZM6.425 21V16.8649H4.825V21H6.425ZM11.6956 16.1899L5.19559 20.325L6.05441 21.675L12.5544 17.5399L11.6956 16.1899ZM19.125 16.0649H12.125V17.6649H19.125V16.0649ZM20.325 14.8108C20.325 15.5237 19.7678 16.0649 19.125 16.0649V17.6649C20.6914 17.6649 21.925 16.3668 21.925 14.8108H20.325ZM20.325 5.05405V14.8108H21.925V5.05405H20.325ZM19.125 3.8C19.7678 3.8 20.325 4.34121 20.325 5.05405H21.925C21.925 3.49805 20.6914 2.2 19.125 2.2V3.8ZM5.125 3.8H19.125V2.2H5.125V3.8Z" fill="#37D288"/>
</svg>
